<?xml version="1.0" encoding="UTF-8" standalone="no"?>
<!DOCTYPE svg PUBLIC "-//W3C//DTD SVG 1.1//EN" "http://www.w3.org/Graphics/SVG/1.1/DTD/svg11.dtd">
<svg width="100%" height="100%" viewBox="0 0 959 959" version="1.1" xmlns="http://www.w3.org/2000/svg" xmlns:xlink="http://www.w3.org/1999/xlink" xml:space="preserve" xmlns:serif="http://www.serif.com/" style="fill-rule:evenodd;clip-rule:evenodd;stroke-linejoin:round;stroke-miterlimit:2;">
    <g transform="matrix(1,0,0,1,-10432,0)">
        <g id="favicon" transform="matrix(0.075164,0,0,0.075164,10432.2,0)">
            <rect x="0" y="0" width="12755.9" height="12755.9" style="fill:none;"/>
            <clipPath id="_clip1">
                <rect x="0" y="0" width="12755.9" height="12755.9"/>
            </clipPath>
            <g clip-path="url(#_clip1)">
                <g transform="matrix(13.3042,0,0,13.3042,-138793,0)">
                    <rect x="10432.2" y="0" width="958.785" height="958.785" style="fill:rgb(18,102,127);"/>
                </g>
                <g id="Isotipo" transform="matrix(7.56164,0,0,7.19446,-7338.28,-6194.92)">
                    <g>
                        <g transform="matrix(1,0,0,1,1296.92,1309.3)">
                            <path d="M-158.23,419.413L-158.23,-297.03L456.296,-297.687C472.264,-297.687 488.098,-297.156 503.804,-296.134L503.804,-99.924L465.713,-99.924C433.285,-147.28 380.376,-175.359 322.875,-175.359C227.326,-175.359 149.592,-97.621 149.592,-2.074C149.592,9.847 150.802,21.49 153.107,32.744L158.366,754.463C136.893,766.451 112.164,773.282 85.87,773.282C3.529,773.282 -63.461,706.293 -63.461,623.955C-63.461,572.496 -37.348,525.3 6.391,497.703L11.975,494.179L11.975,419.071L-158.23,419.413Z" style="fill:rgb(253,254,253);"/>
                        </g>
                        <g transform="matrix(1,0,0,1,1756.17,1533.02)">
                            <path d="M331.383,-46.682C253.619,-146.012 132.699,-210.004 -2.958,-210.01L-284.876,-210.01C-285.429,-215.194 -285.71,-220.463 -285.71,-225.796C-285.71,-308.135 -218.72,-375.125 -136.379,-375.125C-84.923,-375.125 -37.725,-349.014 -10.129,-305.276L-6.603,-299.689L68.503,-299.689L68.503,-517.923C434.635,-482.493 723.093,-177.667 732.698,195.348L591.379,195.348L591.379,157.259C638.74,124.831 666.815,71.924 666.815,14.421C666.815,-81.126 589.081,-158.865 493.532,-158.865C419.479,-158.865 356.128,-112.171 331.383,-46.682Z" style="fill:rgb(253,254,253);"/>
                        </g>
                        <g transform="matrix(1,0,0,1,1869.22,1959.69)">
                            <path d="M-116.009,523.852L-730.535,523.441L-730.535,-207.372L-584.282,-207.372L-584.282,-169.282C-631.643,-136.854 -659.718,-83.948 -659.718,-26.444C-659.718,69.103 -581.984,146.841 -486.435,146.841C-460.488,146.841 -435.854,141.109 -413.743,130.834L-413.148,212.453L-116.009,212.453C5.042,212.447 114.359,161.49 191.756,79.956C246.763,101.991 285.712,155.85 285.712,218.634C285.712,300.973 218.722,367.962 136.381,367.962C84.925,367.962 37.727,341.851 10.131,298.113L6.605,292.526L-68.501,292.526L-68.501,522.298C-84.185,523.319 -100.004,523.851 -116.009,523.852Z" style="fill:rgb(253,254,253);"/>
                        </g>
                        <g transform="matrix(1,0,0,1,2335.57,2126.92)">
                            <path d="M153.583,-374.596C151.153,5.003 -140.056,317.253 -510.899,353.14L-510.899,149.259L-472.808,149.259C-440.369,196.621 -387.465,224.695 -329.97,224.695C-234.421,224.695 -156.686,146.957 -156.686,51.41C-156.686,-18.377 -198.152,-78.66 -257.749,-106.09C-195.427,-179.986 -157.787,-275.34 -157.787,-379.345C-157.787,-400.397 -159.331,-421.093 -162.315,-441.323L-164.068,-452.261C-174.522,-512.278 -197.642,-567.994 -230.531,-616.591C-213.992,-681.036 -155.404,-728.809 -85.87,-728.809C-3.529,-728.809 63.46,-661.819 63.46,-579.48C63.46,-528.022 37.347,-480.826 -6.391,-453.23L-11.976,-449.706L-11.976,-374.596L153.583,-374.596Z" style="fill:rgb(253,254,253);"/>
                        </g>
                    </g>
                </g>
            </g>
        </g>
    </g>
</svg>
